.
..............................Site Info...........................

 -   http://www.scenetime.com  *_*   


Scenetime .Always on time . friendly online private torrent community ..

     We care to share . Join us on  http://www.scenetime.com 

    Be the first to get new release at  http://www.scenetime.com

        Seed back for speed


...................................NFO:.................................................[img]http://i.imgur.com/maegJ.jpg[/img]

[b]Journey.2.The.Mysterious.Island.2012.BRRip.XViD.AC3-ADTRG[/b]

Sean Anderson partners with his mom's husband on a mission to find his grandfather, who is thought to be missing on a mythical island.  

[url]http://www.imdb.com/title/tt1397514/[/url]

Source -  Journey 2 The Mysterious Island 2012 1080p BluRay X264-AMIABLE   Thanks

Complete name                            : Journey.2.The.Mysterious.Island.2012.BRRip.XViD.AC3-ADTRG.avi
Format                                   : AVI
Format/Info                              : Audio Video Interleave
File size                                : 1.44 GiB
Duration                                 : 1h 34mn
Overall bit rate                         : 2 189 Kbps
Writing library                          : VirtualDub build 34703/release

Video
ID                                       : 0
Format                                   : MPEG-4 Visual
Codec ID                                 : XVID
Bit rate                                 : 1 795 Kbps
Width                                    : 720 pixels
Height                                   : 400 pixels
Display aspect ratio                     : 16:9
Frame rate                               : 23.976 fps
Stream size                              : 1.18 GiB (82%)

Audio
ID                                       : 1
Format                                   : AC-3
Bit rate                                 : 384 Kbps
Channel(s)                               : 6 channels
Channel positions                        : Front: L C R, Side: L R, LFE
Stream size                              : 259 MiB (18%)



Encoder - LiMeY
Good things come in small packages, So feel the wrath of my compression

[img]http://i.imgur.com/pu2JA.jpg[/img]


[IMG]http://i.imgur.com/2739o.gif?1?8830[/IMG]

Dont fear the Atomic Dragon, Embrace it  :)


Greetz to DragonMaster,cOOkies,Mr Geek,DBratt420,AnimeKing,Cush,NoWoRRiEs Rayne, Mr & Mrs IrNbRu and the rest of the crew

Respect to CM8,Goon,Hope,mSD,InfernO,legend-rg and maybe a few more ;)